<svg width="29" height="18" viewBox="0 0 29 18" fill="none" xmlns="http://www.w3.org/2000/svg">
<path d="M6.75011 12.1276L4.14761 9.52512C4.00738 9.38489 3.81718 9.3061 3.61886 9.3061C3.42054 9.3061 3.23034 9.38489 3.09011 9.52512C2.94988 9.66535 2.87109 9.85555 2.87109 10.0539C2.87109 10.1521 2.89044 10.2493 2.92801 10.34C2.96559 10.4307 3.02067 10.5132 3.09011 10.5826L6.22511 13.7176C6.51761 14.0101 6.99011 14.0101 7.28261 13.7176L15.2176 5.78262C15.3578 5.64239 15.4366 5.45219 15.4366 5.25387C15.4366 5.05555 15.3578 4.86535 15.2176 4.72512C15.0774 4.58489 14.8872 4.5061 14.6889 4.5061C14.4905 4.5061 14.3003 4.58489 14.1601 4.72512L6.75011 12.1276Z" fill="#F4EEE0"/>
<path d="M17.7501 12.1276L15.1476 9.52512C15.0074 9.38489 14.8172 9.3061 14.6189 9.3061C14.4205 9.3061 14.2303 9.38489 14.0901 9.52512C13.9499 9.66535 13.8711 9.85555 13.8711 10.0539C13.8711 10.1521 13.8904 10.2493 13.928 10.34C13.9656 10.4307 14.0207 10.5132 14.0901 10.5826L17.2251 13.7176C17.5176 14.0101 17.9901 14.0101 18.2826 13.7176L26.2176 5.78262C26.3578 5.64239 26.4366 5.45219 26.4366 5.25387C26.4366 5.05555 26.3578 4.86535 26.2176 4.72512C26.0774 4.58489 25.8872 4.5061 25.6889 4.5061C25.4905 4.5061 25.3003 4.58489 25.1601 4.72512L17.7501 12.1276Z" fill="#F4EEE0"/>
</svg>
